<?xml version="1.0" encoding="UTF-8" standalone="no"?>
<svg
   xmlns:dc="http://purl.org/dc/elements/1.1/"
   xmlns:cc="http://creativecommons.org/ns#"
   xmlns:rdf="http://www.w3.org/1999/02/22-rdf-syntax-ns#"
   xmlns:svg="http://www.w3.org/2000/svg"
   xmlns="http://www.w3.org/2000/svg"
   xmlns:sodipodi="http://sodipodi.sourceforge.net/DTD/sodipodi-0.dtd"
   xmlns:inkscape="http://www.inkscape.org/namespaces/inkscape"
   id="New_VCP"
   data-name="New VCP"
   width="100"
   height="100"
   viewBox="0 0 100 100"
   version="1.1"
   sodipodi:docname="load_auto_man.svg"
   inkscape:version="0.92.4 (5da689c313, 2019-01-14)">
  <metadata
     id="metadata31">
    <rdf:RDF>
      <cc:Work
         rdf:about="">
        <dc:format>image/svg+xml</dc:format>
        <dc:type
           rdf:resource="http://purl.org/dc/dcmitype/StillImage" />
      </cc:Work>
    </rdf:RDF>
  </metadata>
  <defs
     id="defs29" />
  <sodipodi:namedview
     pagecolor="#ffffff"
     bordercolor="#666666"
     borderopacity="1"
     objecttolerance="10"
     gridtolerance="10"
     guidetolerance="10"
     inkscape:pageopacity="0"
     inkscape:pageshadow="2"
     inkscape:window-width="1166"
     inkscape:window-height="774"
     id="namedview27"
     showgrid="false"
     inkscape:zoom="4.72"
     inkscape:cx="50"
     inkscape:cy="50"
     inkscape:window-x="0"
     inkscape:window-y="0"
     inkscape:window-maximized="0"
     inkscape:current-layer="New_VCP" />
  <title
     id="title2">coolant_auto_man</title>
  <rect
     width="100"
     height="100"
     rx="6"
     style="fill: #252d6b"
     id="rect4" />
  <g
     id="g14"
     transform="matrix(0.99168938,0,0,0.97999124,0.88183503,-0.80148223)"
     style="stroke-width:1.01438093">
    <path
       d="M 29.1,33.44 H 23.79 L 23.05,36.2 H 18.27 L 24,19.49 h 5.11 l 5.64,16.71 h -4.89 z m -1,-3.61 -1.67,-6 -1.66,6 z"
       style="fill:#ffffff;stroke-width:1.01862252"
       id="path6"
       inkscape:connector-curvature="0" />
    <path
       d="M 45.37,19.49 H 50 v 10 a 9.1,9.1 0 0 1 -0.42,2.79 6.15,6.15 0 0 1 -1.31,2.31 5.29,5.29 0 0 1 -1.87,1.38 8.68,8.68 0 0 1 -3.28,0.56 A 19.33,19.33 0 0 1 40.71,36.36 5.89,5.89 0 0 1 38.53,35.68 5.56,5.56 0 0 1 37,34.2 5.41,5.41 0 0 1 36,32.27 10.82,10.82 0 0 1 35.57,29.45 v -10 h 4.63 v 10.23 a 3.12,3.12 0 0 0 0.68,2.14 2.45,2.45 0 0 0 1.91,0.77 2.4,2.4 0 0 0 1.89,-0.76 3.07,3.07 0 0 0 0.69,-2.15 z"
       style="fill:#ffffff;stroke-width:1.01862252"
       id="path8"
       inkscape:connector-curvature="0" />
    <path
       d="m 52.07,19.49 h 14.22 v 4.13 H 61.52 V 36.2 H 56.85 V 23.62 h -4.78 z"
       style="fill:#ffffff;stroke-width:1.01862252"
       id="path10"
       inkscape:connector-curvature="0" />
    <path
       d="m 67.1,27.86 a 9.16,9.16 0 0 1 2.07,-6.38 7.35,7.35 0 0 1 5.75,-2.28 7.48,7.48 0 0 1 5.82,2.24 9,9 0 0 1 2.05,6.28 11.16,11.16 0 0 1 -0.9,4.81 6.73,6.73 0 0 1 -2.58,2.92 7.91,7.91 0 0 1 -4.21,1 8.94,8.94 0 0 1 -4.24,-0.9 6.77,6.77 0 0 1 -2.72,-2.85 10.34,10.34 0 0 1 -1.04,-4.84 z m 4.68,0 a 6,6 0 0 0 0.85,3.64 3,3 0 0 0 4.65,0 6.69,6.69 0 0 0 0.83,-3.89 5.61,5.61 0 0 0 -0.86,-3.45 2.86,2.86 0 0 0 -2.34,-1.09 2.71,2.71 0 0 0 -2.27,1.11 6,6 0 0 0 -0.86,3.7 z"
       style="fill:#ffffff;stroke-width:1.01862252"
       id="path12"
       inkscape:connector-curvature="0" />
  </g>
  <g
     id="g22"
     transform="matrix(0.99553027,0,0,1.018574,0.75335229,-0.22588406)"
     style="stroke-width:0.9930622">
    <path
       d="M 25.36,66 H 31.3 L 33.59,76.16 35.87,66 H 41.8 V 82.67 H 38.1 V 69.94 L 35.25,82.67 H 31.9 L 29.06,69.94 v 12.73 h -3.7 z"
       style="fill:#ffffff;stroke-width:0.98396617"
       id="path16"
       inkscape:connector-curvature="0" />
    <path
       d="m 53.67,79.92 h -5.13 l -0.71,2.75 H 43.22 L 48.71,66 h 4.93 l 5.49,16.69 H 54.4 Z m -0.93,-3.61 -1.62,-6 -1.6,6 z"
       style="fill:#ffffff;stroke-width:0.98396617"
       id="path18"
       inkscape:connector-curvature="0" />
    <path
       d="m 60.6,66 h 4.22 l 5.5,9.24 V 66 h 4.26 v 16.67 h -4.26 l -5.47,-9.16 v 9.16 H 60.6 Z"
       style="fill:#ffffff;stroke-width:0.98396617"
       id="path20"
       inkscape:connector-curvature="0" />
  </g>
  <g
     aria-label="LOAD"
     transform="scale(0.99640707,1.0036059)"
     style="font-style:normal;font-variant:normal;font-weight:normal;font-stretch:normal;font-size:22.01636505px;line-height:1.25;font-family:Arial;-inkscape-font-specification:'Arial, Normal';font-variant-ligatures:normal;font-variant-caps:normal;font-variant-numeric:normal;font-feature-settings:normal;text-align:start;letter-spacing:0px;word-spacing:0px;writing-mode:lr-tb;text-anchor:start;fill:#000000;fill-opacity:1;stroke:none;stroke-width:0.99999994"
     id="text840">
    <path
       d="M 27.533508,59.448483 H 16.057694 V 40.178789 h 4.340384 v 15.74901 h 7.13543 z"
       style="font-style:normal;font-variant:normal;font-weight:bold;font-stretch:normal;font-size:27.52045441px;font-family:'Segoe UI';-inkscape-font-specification:'Segoe UI, Bold';font-variant-ligatures:normal;font-variant-caps:normal;font-variant-numeric:normal;font-feature-settings:normal;text-align:start;writing-mode:lr-tb;text-anchor:start;fill:#ffffff;stroke-width:0.98259592"
       id="path842" />
    <path
       d="m 37.584925,59.784426 q -4.138819,0 -6.745737,-2.687545 -2.606918,-2.700982 -2.606918,-7.027928 0,-4.568826 2.647231,-7.390747 2.647232,-2.821922 7.014491,-2.821922 4.125381,0 6.66511,2.700982 2.553167,2.700982 2.553167,7.121993 0,4.54195 -2.647231,7.323558 -2.633793,2.781609 -6.880113,2.781609 z m 0.188128,-16.192455 q -2.284413,0 -3.628185,1.720028 -1.343772,1.706591 -1.343772,4.528512 0,2.862235 1.343772,4.528513 1.343772,1.666277 3.520683,1.666277 2.2441,0 3.560996,-1.612526 1.316897,-1.625965 1.316897,-4.501637 0,-2.996612 -1.276584,-4.66289 -1.276583,-1.666277 -3.493807,-1.666277 z"
       style="font-style:normal;font-variant:normal;font-weight:bold;font-stretch:normal;font-size:27.52045441px;font-family:'Segoe UI';-inkscape-font-specification:'Segoe UI, Bold';font-variant-ligatures:normal;font-variant-caps:normal;font-variant-numeric:normal;font-feature-settings:normal;text-align:start;writing-mode:lr-tb;text-anchor:start;fill:#ffffff;stroke-width:0.98259592"
       id="path844" />
    <path
       d="M 66.811968,59.448483 H 62.08189 l -1.370647,-4.286634 h -6.853239 l -1.357209,4.286634 h -4.703203 l 7.014491,-19.269694 h 5.146647 z m -7.095117,-7.619189 -2.069409,-6.476982 q -0.228441,-0.725637 -0.322505,-1.733466 h -0.107502 q -0.06719,0.846577 -0.335943,1.679715 l -2.096285,6.530733 z"
       style="font-style:normal;font-variant:normal;font-weight:bold;font-stretch:normal;font-size:27.52045441px;font-family:'Segoe UI';-inkscape-font-specification:'Segoe UI, Bold';font-variant-ligatures:normal;font-variant-caps:normal;font-variant-numeric:normal;font-feature-settings:normal;text-align:start;writing-mode:lr-tb;text-anchor:start;fill:#ffffff;stroke-width:0.98259592"
       id="path846" />
    <path
       d="M 69.21732,59.448483 V 40.178789 h 6.826363 q 10.266419,0 10.266419,9.392968 0,4.501637 -2.808484,7.189181 -2.795046,2.687545 -7.457935,2.687545 z M 73.557704,43.71291 v 12.214889 h 2.150036 q 2.821921,0 4.42101,-1.693153 1.612527,-1.693153 1.612527,-4.609138 0,-2.754733 -1.599089,-4.326947 -1.585651,-1.585651 -4.461324,-1.585651 z"
       style="font-style:normal;font-variant:normal;font-weight:bold;font-stretch:normal;font-size:27.52045441px;font-family:'Segoe UI';-inkscape-font-specification:'Segoe UI, Bold';font-variant-ligatures:normal;font-variant-caps:normal;font-variant-numeric:normal;font-feature-settings:normal;text-align:start;writing-mode:lr-tb;text-anchor:start;fill:#ffffff;stroke-width:0.98259592"
       id="path848" />
  </g>
</svg>
